<!DOCTYPE svg PUBLIC "-//W3C//DTD SVG 1.1//EN" "http://www.w3.org/Graphics/SVG/1.1/DTD/svg11.dtd">
<!-- Uploaded to: SVG Repo, www.svgrepo.com, Transformed by: SVG Repo Mixer Tools -->
<svg fill="#ffffff" height="100px" width="100px" version="1.1" id="Layer_1" xmlns="http://www.w3.org/2000/svg" xmlns:xlink="http://www.w3.org/1999/xlink" viewBox="0 0 512 512" xml:space="preserve">
<g id="SVGRepo_bgCarrier" stroke-width="0"/>
<g id="SVGRepo_tracerCarrier" stroke-linecap="round" stroke-linejoin="round"/>
<g id="SVGRepo_iconCarrier"> <g> <g> <path d="M475.886,109.902c0.021-0.604,0.029-1.208,0.029-1.813c0-30.291-24.643-54.937-54.936-54.937 c-1.99,0-3.971,0.107-5.937,0.321c-8.78-19.157-28.186-32.105-49.968-32.105c-21.796,0-41.204,12.954-49.985,32.126 c-2.028-0.228-4.072-0.341-6.127-0.341c-10.086,0-19.82,2.751-28.297,7.861c-11.121-8.763-24.943-13.654-39.304-13.654 c-2.904,0-5.79,0.197-8.646,0.588c-9.779-23.044-32.699-38.756-58.502-38.756c-25.827,0-48.742,15.723-58.505,38.786 c-2.927-0.412-5.887-0.619-8.863-0.619c-35.021,0-63.511,28.491-63.511,63.51c0,1.302,0.039,2.602,0.12,3.9 C17.981,123.219,0,147.254,0,175.04c0,35.019,28.491,63.51,63.51,63.51h221.177c18.586,0,36.123-8.165,48.129-22.097h124.248 c30.291,0,54.936-24.643,54.936-54.936C512,138.032,497.137,117.641,475.886,109.902z M316.796,197.223 c-7.31,10.539-19.313,16.83-32.109,16.83H63.51c-21.511,0-39.012-17.501-39.012-39.012c0-19.726,14.74-36.372,34.287-38.72 c3.523-0.424,6.688-2.353,8.678-5.289c1.99-2.935,2.61-6.591,1.699-10.02c-0.882-3.315-1.328-6.727-1.328-10.143 c0-21.511,17.501-39.012,39.014-39.012c4.456,0,8.841,0.752,13.035,2.238c3.345,1.184,7.043,0.859,10.135-0.894 c3.088-1.753,5.265-4.761,5.963-8.242c3.635-18.117,19.716-31.268,38.236-31.268c18.494,0,34.576,13.128,38.24,31.215 c0.702,3.469,2.871,6.464,5.946,8.215c3.078,1.752,6.759,2.083,10.099,0.917c4.14-1.448,8.468-2.18,12.862-2.18 c11.177,0,21.837,4.809,29.245,13.193c0.002,0.003,0.005,0.005,0.006,0.007c6.296,7.114,9.762,16.28,9.762,25.811 c0,3.422-0.448,6.823-1.333,10.109c-0.922,3.432-0.31,7.096,1.679,10.039c1.99,2.945,5.16,4.88,8.689,5.304 c19.554,2.349,34.3,18.995,34.3,38.72C323.713,183.03,321.322,190.7,316.796,197.223z M457.064,191.956H345.931 c1.504-5.459,2.278-11.137,2.278-16.916c0-27.783-17.981-51.815-43.456-60.269c0.08-1.3,0.12-2.6,0.12-3.904 c0-10.839-2.766-21.389-7.926-30.72c3.759-1.621,7.829-2.499,12.017-2.499c3.474,0,6.895,0.587,10.168,1.747 c3.344,1.188,7.043,0.862,10.131-0.891c3.088-1.752,5.266-4.757,5.965-8.237c2.848-14.141,15.4-24.405,29.847-24.405 c14.427,0,26.971,10.241,29.825,24.353c0.702,3.47,2.871,6.466,5.948,8.218c3.078,1.753,6.763,2.086,10.104,0.915 c3.225-1.128,6.6-1.701,10.028-1.701c16.783,0,30.438,13.654,30.438,30.44c0,2.686-0.347,5.331-1.033,7.859 c-0.93,3.433-0.322,7.101,1.667,10.049c1.988,2.95,5.159,4.889,8.692,5.315c15.255,1.837,26.759,14.824,26.759,30.207 C487.502,178.301,473.849,191.956,457.064,191.956z"/> </g> </g> <g> <g> <path d="M128.791,280.803c-2.12-4.019-6.291-6.535-10.835-6.535s-8.715,2.516-10.835,6.535 c-7.78,14.752-33.162,64.37-33.162,83.457c0,24.261,19.736,43.998,43.998,43.998s43.998-19.737,43.998-43.998 C161.954,345.173,136.57,295.555,128.791,280.803z M117.956,383.76c-10.752,0-19.5-8.748-19.5-19.5 c0-6.726,8.89-28.39,19.5-50.485c10.61,22.094,19.5,43.759,19.5,50.485C137.456,375.012,128.708,383.76,117.956,383.76z"/> </g> </g> <g> <g> <path d="M425.602,256.169c-2.12-4.02-6.29-6.534-10.834-6.534c-4.543,0-8.714,2.516-10.834,6.535 c-6.776,12.85-28.888,56.09-28.888,72.984c0,21.911,17.82,39.735,39.723,39.735c21.909,0,39.734-17.826,39.734-39.735 C454.503,312.259,432.382,269.018,425.602,256.169z M414.769,344.392c-8.395,0-15.225-6.836-15.225-15.237 c0-5.149,6.788-21.973,15.228-39.839c8.444,17.867,15.235,34.69,15.235,39.839C430.007,337.556,423.17,344.392,414.769,344.392z"/> </g> </g> <g> <g> <path d="M307.665,391.96c-2.67-6.215-9.875-9.085-16.09-6.417c-6.215,2.673-9.087,9.876-6.416,16.091 c12.962,30.15,14.362,40.562,14.362,43.64c0,18.215-14.82,33.035-33.036,33.035c-18.215,0-33.035-14.82-33.035-33.035 c0-15.149,25.653-70.609,43.868-105.151c3.155-5.984,0.864-13.393-5.12-16.548c-5.988-3.158-13.394-0.865-16.548,5.12 c-7.798,14.783-46.699,89.887-46.699,116.579c0,31.723,25.808,57.533,57.533,57.533s57.534-25.808,57.534-57.533 C324.018,438.717,322.322,426.055,307.665,391.96z"/> </g> </g> <g> <g> <path d="M295.448,365.076l-0.483-1.013c-2.914-6.105-10.223-8.693-16.33-5.78c-6.105,2.912-8.692,10.223-5.779,16.329l0.519,1.09 c2.092,4.399,6.453,6.949,11.009,6.949c1.774,0,3.578-0.386,5.289-1.2C295.782,378.544,298.355,371.184,295.448,365.076z"/> </g> </g> </g>
</svg>